HIERARCHY
ROOT SpineBase
{
  OFFSET 0.000000 0.000000 0.000000
  CHANNELS 6 Xposition Yposition Zposition Zrotation Xrotation Yrotation
  JOINT SpineMid
  {
    OFFSET 0.000000 25.751006 0.000000
    CHANNELS 3 Zrotation Xrotation Yrotation
    JOINT SpineShoulder
    {
      OFFSET 0.073084 19.411199 -0.861223
      CHANNELS 3 Zrotation Xrotation Yrotation
      JOINT Neck
      {
        OFFSET 0.059309 6.541082 -0.596042
        CHANNELS 3 Zrotation Xrotation Yrotation
        JOINT Head
        {
          OFFSET 5.010975 13.912766 0.085463
          CHANNELS 3 Zrotation Xrotation Yrotation
          End Site
          {
            OFFSET 0 0 0
          }
        }
      }
      JOINT ShoulderLeft
      {
        OFFSET -10.805111 1.267161 -8.750255
        CHANNELS 3 Zrotation Xrotation Yrotation
        JOINT ElbowLeft
        {
          OFFSET -4.130420 -20.296053 -11.022664
          CHANNELS 3 Zrotation Xrotation Yrotation
          JOINT WristLeft
          {
            OFFSET 11.948358 -12.235047 -15.152845
            CHANNELS 3 Zrotation Xrotation Yrotation
            JOINT HandLeft
            {
              OFFSET 2.868298 -3.974965 -5.122787
              CHANNELS 3 Zrotation Xrotation Yrotation
              JOINT HandTipLeft
              {
                OFFSET 3.070008 -4.342826 -4.178373
                CHANNELS 3 Zrotation Xrotation Yrotation
                End Site
                {
                  OFFSET 0 0 0
                }
              }
              JOINT ThumbLeft
              {
                OFFSET 3.741790 -0.186142 0.145305
                CHANNELS 3 Zrotation Xrotation Yrotation
                End Site
                {
                  OFFSET 0 0 0
                }
              }
            }
          }
        }
      }
      JOINT ShoulderRight
      {
        OFFSET 14.574923 -3.896997 7.141044
        CHANNELS 3 Zrotation Xrotation Yrotation
        JOINT ElbowRight
        {
          OFFSET 5.121738 -18.636913 2.156627
          CHANNELS 3 Zrotation Xrotation Yrotation
          JOINT WristRight
          {
            OFFSET 8.424723 -12.600687 -21.198024
            CHANNELS 3 Zrotation Xrotation Yrotation
            JOINT HandRight
            {
              OFFSET -0.319936 -2.970311 -4.456595
              CHANNELS 3 Zrotation Xrotation Yrotation
              JOINT HandTipRight
              {
                OFFSET 1.726957 -3.902859 -5.128941
                CHANNELS 3 Zrotation Xrotation Yrotation
                End Site
                {
                  OFFSET 0 0 0
                }
              }
              JOINT ThumbRight
              {
                OFFSET 3.769026 1.814261 -1.427310
                CHANNELS 3 Zrotation Xrotation Yrotation
                End Site
                {
                  OFFSET 0 0 0
                }
              }
            }
          }
        }
      }
    }
  }
  JOINT HipLeft
  {
    OFFSET -6.029472 2.206212 -6.033562
    CHANNELS 3 Zrotation Xrotation Yrotation
    JOINT KneeLeft
    {
      OFFSET 7.815622 3.697763 -32.776576
      CHANNELS 3 Zrotation Xrotation Yrotation
      JOINT AnkleLeft
      {
        OFFSET 1.704021 -29.029873 -5.094592
        CHANNELS 3 Zrotation Xrotation Yrotation
        JOINT FootLeft
        {
          OFFSET 5.809781 -1.501389 -11.925322
          CHANNELS 3 Zrotation Xrotation Yrotation
          End Site
          {
            OFFSET 0 0 0
          }
        }
      }
    }
  }
  JOINT HipRight
  {
    OFFSET 7.086360 1.118520 0.109241
    CHANNELS 3 Zrotation Xrotation Yrotation
    JOINT KneeRight
    {
      OFFSET 24.328219 -0.328028 -16.235148
      CHANNELS 3 Zrotation Xrotation Yrotation
      JOINT AnkleRight
      {
        OFFSET -5.800776 -28.245015 -11.487904
        CHANNELS 3 Zrotation Xrotation Yrotation
        JOINT FootRight
        {
          OFFSET 6.795983 -1.363507 -12.229615
          CHANNELS 3 Zrotation Xrotation Yrotation
          End Site
          {
            OFFSET 0 0 0
          }
        }
      }
    }
  }
}
MOTION
Frames: 13
Frame Time: 0.033333
-58.534986 31.794667 347.943412 4.572595 1.604520 -25.099259 -0.313756 0.440467 25.204513 -0.460157 -0.048717 0.150078 11.938744 -8.756529 3.571628 0.000000 0.000000 0.000000 6.284670 0.676780 -6.498434 -21.394427 -14.850931 10.914125 -1.284118 2.107287 8.009419 24.664499 38.863788 2.346549 0.000000 0.000000 0.000000 0.000000 0.000000 0.000000 11.476950 22.016928 5.285628 -9.450482 -7.047553 -9.701783 20.357028 12.734724 -32.433939 10.005094 -4.295032 9.736691 0.000000 0.000000 0.000000 0.000000 0.000000 0.000000 -4.013696 -0.167362 26.226352 1.047866 -3.886958 -1.606748 -1.843994 1.942570 3.614341 0.000000 0.000000 0.000000 -2.565634 -1.867108 25.806503 0.498726 -1.555431 -1.497158 -7.260589 -9.071769 25.447721 0.000000 0.000000 0.000000
-58.491719 31.736711 347.955309 4.512086 1.596122 -25.022949 -0.500202 0.340235 25.115432 -0.500876 -0.034174 0.132254 12.774168 -8.974799 3.781890 0.000000 0.000000 0.000000 6.622597 1.047106 -6.574136 -21.353306 -15.426807 10.603265 4.576483 10.681200 6.533447 8.181538 24.776713 8.777683 0.000000 0.000000 0.000000 0.000000 0.000000 0.000000 11.297633 22.506335 5.429059 -9.630195 -4.973352 -7.427350 16.554740 27.046529 -28.068982 23.531584 -11.915664 7.974629 0.000000 0.000000 0.000000 0.000000 0.000000 0.000000 -4.031740 0.267015 26.352152 1.190561 -4.184817 -1.822823 -2.129778 1.805508 3.675536 0.000000 0.000000 0.000000 -2.587518 -1.950140 25.696914 0.500385 -1.429468 -1.429190 -4.821351 -3.339458 14.462437 0.000000 0.000000 0.000000
-58.442852 31.696053 347.977686 4.470183 1.586840 -24.982604 -0.519625 0.310300 25.073379 -0.354543 -0.007529 0.144052 12.577527 -9.182742 3.871112 0.000000 0.000000 0.000000 6.432572 1.052915 -6.519586 -21.533834 -15.901678 10.388683 5.387800 11.952618 6.561386 4.546376 20.437177 9.320046 0.000000 0.000000 0.000000 0.000000 0.000000 0.000000 12.720903 21.750552 5.199204 -10.662872 3.244124 -3.453710 3.562092 33.412113 -15.760461 27.284840 -8.762081 8.333426 0.000000 0.000000 0.000000 0.000000 0.000000 0.000000 -4.049055 0.603963 26.508440 1.229427 -4.416013 -2.021926 -2.273789 1.710225 3.654430 0.000000 0.000000 0.000000 -2.853938 -2.417086 25.702865 0.642237 -0.943141 -1.389136 -4.362107 -3.126069 14.732762 0.000000 0.000000 0.000000
-58.374175 31.662085 347.985776 4.489154 1.582400 -24.865391 -0.443556 0.335545 24.961759 -0.145709 0.026122 0.170121 11.742468 -9.378621 3.874893 0.000000 0.000000 0.000000 5.950079 0.962934 -6.435116 -20.567510 -14.394221 10.667452 8.161788 12.085631 2.190546 -4.302367 14.686989 13.622187 0.000000 0.000000 0.000000 0.000000 0.000000 0.000000 13.604785 20.601272 4.944316 -11.540427 14.392624 1.687725 -1.034089 32.932898 -13.678095 15.425751 0.025168 15.874467 0.000000 0.000000 0.000000 0.000000 0.000000 0.000000 -4.094223 0.800837 26.578464 1.147326 -4.501249 -2.200891 -2.262075 1.617635 3.668073 0.000000 0.000000 0.000000 -3.291004 -3.095632 25.660444 0.845177 -0.235253 -1.360814 -5.217330 -6.005359 21.750839 0.000000 0.000000 0.000000
-58.386546 31.652985 347.965770 4.441054 1.608518 -24.798337 -0.267637 0.400341 24.903451 0.181558 0.042278 0.211509 10.446319 -9.499351 3.782871 0.000000 0.000000 0.000000 5.303360 0.944246 -6.385237 -20.035444 -13.892552 10.539494 7.507096 10.954954 2.006913 -4.862703 13.912134 13.697283 0.000000 0.000000 0.000000 0.000000 0.000000 0.000000 13.242785 19.829878 4.801433 -10.181853 23.805900 4.356694 -5.360979 29.789802 -13.190966 -1.902131 2.492024 23.853086 0.000000 0.000000 0.000000 0.000000 0.000000 0.000000 -4.060660 0.919606 26.558614 1.080140 -4.440839 -2.233578 -2.224807 1.465961 3.728931 0.000000 0.000000 0.000000 -3.862020 -4.120730 25.639613 0.796740 0.507490 -1.037009 -4.746790 -7.300532 26.031392 0.000000 0.000000 0.000000
-58.456296 31.649033 347.923761 4.357791 1.669000 -24.787250 -0.019557 0.487057 24.903251 0.563752 0.050501 0.261124 8.858298 -9.656481 3.670192 0.000000 0.000000 0.000000 4.593662 0.901166 -6.359477 -19.720763 -13.699739 10.366023 7.062475 12.772608 3.982994 -3.717880 12.527727 11.440198 0.000000 0.000000 0.000000 0.000000 0.000000 0.000000 15.580877 17.751390 4.408594 -11.014143 33.049645 5.299255 -11.387946 22.889260 -12.328263 -6.263158 9.572789 27.785641 0.000000 0.000000 0.000000 0.000000 0.000000 0.000000 -3.971504 0.925250 26.459643 1.059373 -4.336964 -2.135305 -2.186083 1.370921 3.775435 0.000000 0.000000 0.000000 -4.516176 -5.382494 25.627750 2.056693 2.121492 -1.297949 -5.176085 -9.390351 30.643339 0.000000 0.000000 0.000000
-58.546165 31.664374 347.884985 4.310152 1.725053 -24.817047 0.241557 0.609542 24.945337 0.948114 0.038850 0.315326 7.095830 -9.680940 3.469015 0.000000 0.000000 0.000000 3.821134 0.787456 -6.324802 -18.831492 -12.453204 10.415005 7.893899 13.619312 3.074618 -2.794869 14.812247 12.075013 0.000000 0.000000 0.000000 0.000000 0.000000 0.000000 17.515443 16.166668 4.165973 -10.192185 38.461749 3.278898 -15.500482 16.879226 -12.479306 -2.205235 16.892061 27.857122 0.000000 0.000000 0.000000 0.000000 0.000000 0.000000 -3.894096 0.791385 26.345984 1.024270 -4.138651 -1.981634 -2.085799 1.318444 3.779828 0.000000 0.000000 0.000000 -4.083828 -4.817029 25.560898 1.425766 0.921057 -0.977766 -6.329192 -17.376239 45.985804 0.000000 0.000000 0.000000
-58.643581 31.693452 347.852233 4.319135 1.755426 -24.908305 0.502999 0.749249 25.050772 1.269659 0.019009 0.366599 5.268954 -9.617061 3.225407 0.000000 0.000000 0.000000 2.901216 0.698298 -6.215066 -18.659127 -12.533209 10.157382 3.467831 8.747731 5.508909 5.640429 21.909233 9.078655 0.000000 0.000000 0.000000 0.000000 0.000000 0.000000 18.641968 15.680372 4.054294 -8.774599 41.917928 1.009628 -15.325976 7.838413 -15.816577 -9.999410 23.530109 32.987405 0.000000 0.000000 0.000000 0.000000 0.000000 0.000000 -3.858021 0.537227 26.249743 0.996837 -3.900839 -1.788107 -1.957826 1.345711 3.771945 0.000000 0.000000 0.000000 -4.031498 -4.787996 25.588498 1.359735 0.879773 -0.912112 -5.888423 -22.314062 54.833897 0.000000 0.000000 0.000000
-58.739258 31.716793 347.828547 4.413497 1.754602 -25.027121 0.747152 0.887445 25.185410 1.508152 -0.016845 0.413292 3.473509 -9.247927 2.860386 0.000000 0.000000 0.000000 2.336151 0.837649 -6.341909 -19.197511 -13.770777 9.703717 -1.366367 8.874775 13.440362 16.425042 22.778012 1.076853 0.000000 0.000000 0.000000 0.000000 0.000000 0.000000 18.873098 16.007673 3.986390 -6.993978 39.877917 -2.504822 -13.387162 1.799573 -17.341555 -18.115366 29.614370 38.411117 0.000000 0.000000 0.000000 0.000000 0.000000 0.000000 -3.936811 0.408117 26.236899 0.983313 -3.781127 -1.656140 -1.882696 1.357747 3.756903 0.000000 0.000000 0.000000 -4.028443 -4.703398 25.628178 1.230130 0.797091 -0.830033 -4.315191 -28.733169 65.122792 0.000000 0.000000 0.000000
-58.831783 31.730687 347.816271 4.396180 1.757109 -25.093592 0.623102 0.851324 25.244133 1.365244 -0.052134 0.393091 4.275476 -8.835961 2.755288 0.000000 0.000000 0.000000 2.776022 1.128058 -6.465706 -19.575092 -14.916255 9.217366 -5.747776 8.231655 20.673272 27.489302 24.124876 -5.454874 0.000000 0.000000 0.000000 0.000000 0.000000 0.000000 19.508434 16.673337 4.037124 -5.382230 34.104242 -6.723778 -8.696908 -7.308188 -18.896234 -14.434558 41.040248 33.625396 0.000000 0.000000 0.000000 0.000000 0.000000 0.000000 -3.920591 0.365715 26.183882 1.017999 -3.707022 -1.535711 -1.892241 1.312595 3.738198 0.000000 0.000000 0.000000 -4.000354 -4.693154 25.613628 1.219473 0.792450 -0.747461 -1.619268 -34.277278 75.217314 0.000000 0.000000 0.000000
-58.904325 31.742013 347.818070 4.370551 1.750686 -25.072541 0.314356 0.738778 25.204465 1.057388 -0.072037 0.343221 6.273830 -8.509030 2.804300 0.000000 0.000000 0.000000 3.674520 1.475787 -6.613026 -20.014573 -16.011477 8.908677 -6.177869 10.399678 23.474117 37.877653 25.242981 -10.923888 0.000000 0.000000 0.000000 0.000000 0.000000 0.000000 19.882926 18.113497 4.186497 -7.322022 22.538840 -9.144501 -0.316215 -5.493785 -19.866938 -6.558215 38.912291 22.357289 0.000000 0.000000 0.000000 0.000000 0.000000 0.000000 -3.902118 0.367593 26.092622 1.066729 -3.667643 -1.466367 -1.936489 1.252675 3.702661 0.000000 0.000000 0.000000 -3.946010 -4.616265 25.475770 1.160594 0.757112 -0.625082 -3.309256 -32.515046 68.711897 0.000000 0.000000 0.000000
-58.936570 31.746455 347.835531 4.438632 1.731033 -24.953902 0.209969 0.734670 25.081330 0.896397 -0.057885 0.322981 7.036123 -8.187417 2.712500 0.000000 0.000000 0.000000 4.288908 1.593650 -6.861371 -20.660648 -16.535680 9.241194 -4.880589 11.425101 22.216706 33.422118 24.431395 -8.617033 0.000000 0.000000 0.000000 0.000000 0.000000 0.000000 18.751020 19.943293 4.379958 -8.881925 10.796520 -11.386886 5.256934 -4.306717 -20.717342 1.704695 33.199543 11.358141 0.000000 0.000000 0.000000 0.000000 0.000000 0.000000 -3.971976 0.369684 25.975959 1.151171 -3.658406 -1.479612 -2.018216 1.237969 3.691451 0.000000 0.000000 0.000000 -3.971955 -4.530359 25.239161 1.072760 0.702401 -0.504654 -6.864008 -20.453373 44.172445 0.000000 0.000000 0.000000
-58.921047 31.737251 347.858983 4.546589 1.700315 -24.716236 0.090003 0.734999 24.839373 0.716060 -0.034803 0.301274 7.786615 -7.854870 2.608385 0.000000 0.000000 0.000000 4.619669 1.976068 -7.026933 -20.725415 -17.196705 9.010673 -4.978815 9.869672 21.342261 31.475431 22.172260 -9.436046 0.000000 0.000000 0.000000 0.000000 0.000000 0.000000 16.977804 21.516797 4.644445 -11.196778 0.819369 -12.069148 10.153693 -1.187797 -22.887787 1.448062 26.590488 9.480512 0.000000 0.000000 0.000000 0.000000 0.000000 0.000000 -4.075783 0.359681 25.779512 1.211518 -3.680160 -1.533405 -2.080962 1.273632 3.707960 0.000000 0.000000 0.000000 -4.071578 -4.481523 24.976725 1.626809 1.229119 -0.849992 -6.888840 -14.100881 32.514136 0.000000 0.000000 0.000000
